<?xml version="1.0" standalone="no"?>
<!DOCTYPE svg PUBLIC "-//W3C//DTD SVG 20010904//EN"
 "http://www.w3.org/TR/2001/REC-SVG-20010904/DTD/svg10.dtd">
<svg version="1.0" xmlns="http://www.w3.org/2000/svg"
 width="200.000000pt" height="200.000000pt" viewBox="0 0 200.000000 200.000000"
 preserveAspectRatio="xMidYMid meet">
<metadata>
Created by potrace 1.11, written by Peter Selinger 2001-2013
</metadata>
<g transform="translate(0.000000,200.000000) scale(0.100000,-0.100000)"
fill="#000000" stroke="none">
<path d="M720 1890 l0 -110 -110 0 -110 0 0 -110 0 -110 -80 0 -80 0 0 -550 0
-550 80 0 80 0 0 -115 0 -115 110 0 110 0 0 -105 0 -105 280 0 280 0 0 105 0
105 110 0 110 0 0 115 0 115 80 0 80 0 0 550 0 550 -80 0 -80 0 0 110 0 110
-110 0 -110 0 0 110 0 110 -280 0 -280 0 0 -110z m80 -625 l0 -45 200 0 200 0
0 45 0 45 100 0 100 0 0 -200 0 -200 -100 0 -100 0 0 -100 0 -100 100 0 100 0
0 -100 0 -100 -400 0 -400 0 0 100 0 100 100 0 100 0 0 100 0 100 -100 0 -100
0 0 200 0 200 100 0 100 0 0 -45z"/>
<path d="M660 1080 l0 -29 88 -3 87 -3 3 -32 3 -33 60 0 59 0 0 35 c0 34 1 35
40 35 39 0 40 -1 40 -35 l0 -35 59 0 60 0 3 33 3 32 88 3 87 3 0 29 0 30 -340
0 -340 0 0 -30z"/>
<path d="M840 805 l0 -65 60 0 60 0 0 65 0 65 -60 0 -60 0 0 -65z"/>
<path d="M1040 805 l0 -65 60 0 60 0 0 65 0 65 -60 0 -60 0 0 -65z"/>
<path d="M740 610 l0 -30 260 0 260 0 0 30 0 30 -260 0 -260 0 0 -30z"/>
</g>
</svg>
